<svg xmlns="http://www.w3.org/2000/svg" viewBox="0 0 640 356" width="640" height="356" font-family="DM Sans, PingFang SC, Microsoft YaHei, Noto Sans SC, system-ui, sans-serif" font-size="14" fill="#1A2E4A">
<defs><marker id="a1" viewBox="0 0 10 10" refX="9" refY="5" markerWidth="7" markerHeight="7" orient="auto"><path d="M0,0 L10,5 L0,10 z" fill="#2563EB"/></marker><marker id="a2" viewBox="0 0 10 10" refX="9" refY="5" markerWidth="7" markerHeight="7" orient="auto"><path d="M0,0 L10,5 L0,10 z" fill="#1A2E4A"/></marker><marker id="a3" viewBox="0 0 10 10" refX="9" refY="5" markerWidth="7" markerHeight="7" orient="auto"><path d="M0,0 L10,5 L0,10 z" fill="#15803D"/></marker><marker id="a4" viewBox="0 0 10 10" refX="9" refY="5" markerWidth="7" markerHeight="7" orient="auto"><path d="M0,0 L10,5 L0,10 z" fill="#DC2626"/></marker></defs>
<polygon points="90,322 470,344 620,238 250,214" fill="#DBEAFE" fill-opacity="0.7" stroke="#2563EB" stroke-width="1.5"/>
<text x="132" y="311" font-size="13" fill="#2563EB"><tspan font-weight="700">X</tspan> 的列空间</text>
<line x1="300" y1="280" x2="455" y2="300" stroke="#2563EB" stroke-width="2" marker-end="url(#a1)"/>
<line x1="300" y1="280" x2="405" y2="232" stroke="#2563EB" stroke-width="2" marker-end="url(#a1)"/>
<text x="463" y="305" fill="#2563EB"><tspan font-weight="700">x</tspan><tspan dy="4" font-size="10">(1)</tspan><tspan dy="-4"> </tspan></text>
<text x="413" y="228" fill="#2563EB"><tspan font-weight="700">x</tspan><tspan dy="4" font-size="10">(2)</tspan><tspan dy="-4"> </tspan></text>
<circle cx="300" cy="280" r="3.5" fill="#1A2E4A"/>
<text x="282" y="300" font-size="13" fill="#475569">0</text>
<line x1="300" y1="280" x2="372" y2="99" stroke="#1A2E4A" stroke-width="2" marker-end="url(#a2)"/>
<line x1="300" y1="280" x2="370" y2="276" stroke="#15803D" stroke-width="3" marker-end="url(#a3)"/>
<line x1="372" y1="274" x2="372" y2="104" stroke="#DC2626" stroke-width="2" stroke-dasharray="6 4"/>
<path d="M388,277.6 L388,265 L372,264" fill="none" stroke="#DC2626" stroke-width="1.4"/>
<circle cx="372" cy="276" r="4" fill="#15803D"/>
<text x="384" y="100" fill="#1A2E4A"><tspan font-weight="700">y</tspan></text>
<text x="384" y="118" font-size="12" fill="#475569">数据向量</text>
<text x="398" y="262" fill="#15803D"><tspan font-weight="700">ŷ</tspan> = <tspan font-weight="700">X</tspan><tspan font-weight="700">w</tspan><tspan dy="-5" font-size="14">*</tspan><tspan dy="5"> </tspan></text>
<text x="384" y="150" fill="#DC2626"><tspan font-weight="700">r</tspan> = <tspan font-weight="700">y</tspan> − <tspan font-weight="700">ŷ</tspan></text>
<text x="384" y="168" font-size="12" fill="#475569">残差</text>
<text x="384" y="184" font-size="12" fill="#475569">与平面成直角</text>
<rect x="470" y="60" width="150" height="62" rx="8" fill="#FEF2F2" stroke="#DC2626" stroke-width="1.5"/>
<text x="545" y="84" text-anchor="middle" font-size="12" fill="#475569">正规方程</text>
<text x="545" y="108" text-anchor="middle" font-size="15" fill="#1A2E4A"><tspan font-weight="700">X</tspan>ᵀ<tspan font-weight="700">r</tspan> = <tspan font-weight="700">0</tspan></text>
</svg>