<?xml version="1.0" encoding="UTF-8" standalone="no"?>
<!DOCTYPE svg PUBLIC "-//W3C//DTD SVG 1.1//EN"
 "http://www.w3.org/Graphics/SVG/1.1/DTD/svg11.dtd">
<!-- Generated by graphviz version 14.1.3 (20260303.0454)
 -->
<!-- Title: SOLID Pages: 1 -->
<svg width="1431pt" height="1121pt"
 viewBox="45.00 30.00 1386.00 1091.00" xmlns="http://www.w3.org/2000/svg" xmlns:xlink="http://www.w3.org/1999/xlink">
<g id="graph0" class="graph" transform="scale(2.08333 2.08333) rotate(0) translate(25.6 519.65)">
<title>SOLID</title>
<polygon fill="white" stroke="none" points="-4,4 -4,-505.25 639.7,-505.25 639.7,4 -4,4"/>
<!-- S -->
<g id="node1" class="node">
<title>S</title>
<path fill="none" stroke="black" stroke-width="2" d="M72,-424.7C72,-424.7 563.7,-424.7 563.7,-424.7 569.7,-424.7 575.7,-430.7 575.7,-436.7 575.7,-436.7 575.7,-488.75 575.7,-488.75 575.7,-494.75 569.7,-500.75 563.7,-500.75 563.7,-500.75 72,-500.75 72,-500.75 66,-500.75 60,-494.75 60,-488.75 60,-488.75 60,-436.7 60,-436.7 60,-430.7 66,-424.7 72,-424.7"/>
<text xml:space="preserve" text-anchor="start" x="81.6" y="-474" font-family="Courier New" font-size="13.00">S — Single Responsibility</text>
<text xml:space="preserve" text-anchor="start" x="81.6" y="-458.25" font-family="Courier New" font-size="13.00">each class has one reason to change.</text>
<text xml:space="preserve" text-anchor="start" x="81.6" y="-442.5" font-family="Courier New" font-size="13.00">Book: data/validation. Order: lifecycle. Payment: transactions.</text>
</g>
<!-- O -->
<g id="node2" class="node">
<title>O</title>
<path fill="none" stroke="black" stroke-width="2" d="M87,-318.65C87,-318.65 548.7,-318.65 548.7,-318.65 554.7,-318.65 560.7,-324.65 560.7,-330.65 560.7,-330.65 560.7,-382.7 560.7,-382.7 560.7,-388.7 554.7,-394.7 548.7,-394.7 548.7,-394.7 87,-394.7 87,-394.7 81,-394.7 75,-388.7 75,-382.7 75,-382.7 75,-330.65 75,-330.65 75,-324.65 81,-318.65 87,-318.65"/>
<text xml:space="preserve" text-anchor="start" x="96.6" y="-367.95" font-family="Courier New" font-size="13.00">O — Open/Closed</text>
<text xml:space="preserve" text-anchor="start" x="96.6" y="-352.2" font-family="Courier New" font-size="13.00">open for extension, closed for modification.</text>
<text xml:space="preserve" text-anchor="start" x="96.6" y="-336.45" font-family="Courier New" font-size="13.00">New BookType: subclass Book only. No existing code changes.</text>
</g>
<!-- S&#45;&gt;O -->
<!-- L -->
<g id="node3" class="node">
<title>L</title>
<path fill="none" stroke="black" stroke-width="2" d="M64.5,-212.6C64.5,-212.6 571.2,-212.6 571.2,-212.6 577.2,-212.6 583.2,-218.6 583.2,-224.6 583.2,-224.6 583.2,-276.65 583.2,-276.65 583.2,-282.65 577.2,-288.65 571.2,-288.65 571.2,-288.65 64.5,-288.65 64.5,-288.65 58.5,-288.65 52.5,-282.65 52.5,-276.65 52.5,-276.65 52.5,-224.6 52.5,-224.6 52.5,-218.6 58.5,-212.6 64.5,-212.6"/>
<text xml:space="preserve" text-anchor="start" x="74.1" y="-261.9" font-family="Courier New" font-size="13.00">L — Liskov Substitution</text>
<text xml:space="preserve" text-anchor="start" x="74.1" y="-246.15" font-family="Courier New" font-size="13.00">subtypes honour the parent contract.</text>
<text xml:space="preserve" text-anchor="start" x="74.1" y="-230.4" font-family="Courier New" font-size="13.00">DigitalBook/PhysicalBook always usable wherever Book is expected.</text>
</g>
<!-- O&#45;&gt;L -->
<!-- I -->
<g id="node4" class="node">
<title>I</title>
<path fill="none" stroke="black" stroke-width="2" d="M68.25,-106.55C68.25,-106.55 567.45,-106.55 567.45,-106.55 573.45,-106.55 579.45,-112.55 579.45,-118.55 579.45,-118.55 579.45,-170.6 579.45,-170.6 579.45,-176.6 573.45,-182.6 567.45,-182.6 567.45,-182.6 68.25,-182.6 68.25,-182.6 62.25,-182.6 56.25,-176.6 56.25,-170.6 56.25,-170.6 56.25,-118.55 56.25,-118.55 56.25,-112.55 62.25,-106.55 68.25,-106.55"/>
<text xml:space="preserve" text-anchor="start" x="77.85" y="-155.85" font-family="Courier New" font-size="13.00">I — Interface Segregation</text>
<text xml:space="preserve" text-anchor="start" x="77.85" y="-140.1" font-family="Courier New" font-size="13.00">small focused interfaces over one large one.</text>
<text xml:space="preserve" text-anchor="start" x="77.85" y="-124.35" font-family="Courier New" font-size="13.00">Payable, Discountable, Serialisable — each minimal and targeted.</text>
</g>
<!-- L&#45;&gt;I -->
<!-- D -->
<g id="node5" class="node">
<title>D</title>
<path fill="none" stroke="black" stroke-width="2" d="M12,-0.5C12,-0.5 623.7,-0.5 623.7,-0.5 629.7,-0.5 635.7,-6.5 635.7,-12.5 635.7,-12.5 635.7,-64.55 635.7,-64.55 635.7,-70.55 629.7,-76.55 623.7,-76.55 623.7,-76.55 12,-76.55 12,-76.55 6,-76.55 0,-70.55 0,-64.55 0,-64.55 0,-12.5 0,-12.5 0,-6.5 6,-0.5 12,-0.5"/>
<text xml:space="preserve" text-anchor="start" x="21.6" y="-49.8" font-family="Courier New" font-size="13.00">D — Dependency Inversion</text>
<text xml:space="preserve" text-anchor="start" x="21.6" y="-34.05" font-family="Courier New" font-size="13.00">depend on abstractions, not concretions.</text>
<text xml:space="preserve" text-anchor="start" x="21.6" y="-18.3" font-family="Courier New" font-size="13.00">Order depends on Book (not DigitalBook). PricingStrategy (not StandardPricing).</text>
</g>
<!-- I&#45;&gt;D -->
</g>
</svg>
