<?xml version="1.0" encoding="UTF-8" standalone="no"?>
<!DOCTYPE svg PUBLIC "-//W3C//DTD SVG 1.1//EN"
 "http://www.w3.org/Graphics/SVG/1.1/DTD/svg11.dtd">
<!-- Generated by graphviz version 14.1.3 (20260303.0454)
 -->
<!-- Title: DomainModel Pages: 1 -->
<svg width="2682pt" height="969pt"
 viewBox="45.00 30.00 2637.00 939.00" xmlns="http://www.w3.org/2000/svg" xmlns:xlink="http://www.w3.org/1999/xlink">
<g id="graph0" class="graph" transform="scale(2.08333 2.08333) rotate(0) translate(25.6 446.9)">
<title>DomainModel</title>
<polygon fill="white" stroke="none" points="-4,4 -4,-432.5 1240,-432.5 1240,4 -4,4"/>
<!-- Customer -->
<g id="node1" class="node">
<title>Customer</title>
<polygon fill="none" stroke="black" stroke-width="2" points="351.75,-166.62 351.75,-261.88 487.75,-261.88 487.75,-166.62 351.75,-166.62"/>
<text xml:space="preserve" text-anchor="middle" x="419.75" y="-246.47" font-family="Courier New" font-size="12.00">Customer</text>
<polyline fill="none" stroke="black" stroke-width="2" points="351.75,-239.62 487.75,-239.62"/>
<text xml:space="preserve" text-anchor="start" x="359.75" y="-224.22" font-family="Courier New" font-size="12.00">customer_id</text>
<text xml:space="preserve" text-anchor="start" x="359.75" y="-209.97" font-family="Courier New" font-size="12.00">_name, _email</text>
<polyline fill="none" stroke="black" stroke-width="2" points="351.75,-203.12 487.75,-203.12"/>
<text xml:space="preserve" text-anchor="start" x="359.75" y="-187.72" font-family="Courier New" font-size="12.00">get_name()</text>
<text xml:space="preserve" text-anchor="start" x="359.75" y="-173.47" font-family="Courier New" font-size="12.00">email «property»</text>
</g>
<!-- Order -->
<g id="node2" class="node">
<title>Order</title>
<polygon fill="none" stroke="black" stroke-width="2" points="52.25,-332.75 52.25,-428 233.25,-428 233.25,-332.75 52.25,-332.75"/>
<text xml:space="preserve" text-anchor="middle" x="142.75" y="-412.6" font-family="Courier New" font-size="12.00">Order</text>
<polyline fill="none" stroke="black" stroke-width="2" points="52.25,-405.75 233.25,-405.75"/>
<text xml:space="preserve" text-anchor="start" x="60.25" y="-390.35" font-family="Courier New" font-size="12.00">order_id, _status</text>
<text xml:space="preserve" text-anchor="start" x="60.25" y="-376.1" font-family="Courier New" font-size="12.00">_items:list[OrderItem]</text>
<polyline fill="none" stroke="black" stroke-width="2" points="52.25,-369.25 233.25,-369.25"/>
<text xml:space="preserve" text-anchor="start" x="60.25" y="-353.85" font-family="Courier New" font-size="12.00">place(), cancel()</text>
<text xml:space="preserve" text-anchor="start" x="60.25" y="-339.6" font-family="Courier New" font-size="12.00">total()</text>
</g>
<!-- Customer&#45;&gt;Order -->
<g id="edge8" class="edge">
<title>Customer&#45;&gt;Order</title>
<path fill="none" stroke="black" stroke-dasharray="5,2" d="M351.37,-258.74C345.43,-262.41 339.5,-266.04 333.75,-269.5 301.98,-288.65 266.87,-309.06 235.52,-327.02"/>
<polygon fill="black" stroke="black" points="226.97,-331.91 233.42,-323.04 230.25,-330.03 235.65,-326.94 235.65,-326.94 235.65,-326.94 230.25,-330.03 237.88,-330.85 226.97,-331.91"/>
<text xml:space="preserve" text-anchor="middle" x="304.96" y="-297.75" font-family="Courier New" font-size="10.00">places</text>
</g>
<!-- ShoppingCart -->
<g id="node5" class="node">
<title>ShoppingCart</title>
<polygon fill="none" stroke="black" stroke-width="2" points="733.5,-166.62 733.5,-261.88 892,-261.88 892,-166.62 733.5,-166.62"/>
<text xml:space="preserve" text-anchor="middle" x="812.75" y="-246.47" font-family="Courier New" font-size="12.00">ShoppingCart</text>
<polyline fill="none" stroke="black" stroke-width="2" points="733.5,-239.62 892,-239.62"/>
<text xml:space="preserve" text-anchor="start" x="741.5" y="-224.22" font-family="Courier New" font-size="12.00">cart_id</text>
<text xml:space="preserve" text-anchor="start" x="741.5" y="-209.97" font-family="Courier New" font-size="12.00">_items : list[Book]</text>
<polyline fill="none" stroke="black" stroke-width="2" points="733.5,-203.12 892,-203.12"/>
<text xml:space="preserve" text-anchor="start" x="741.5" y="-187.72" font-family="Courier New" font-size="12.00">add_item(b)</text>
<text xml:space="preserve" text-anchor="start" x="741.5" y="-173.47" font-family="Courier New" font-size="12.00">total()</text>
</g>
<!-- Customer&#45;&gt;ShoppingCart -->
<g id="edge9" class="edge">
<title>Customer&#45;&gt;ShoppingCart</title>
<path fill="none" stroke="black" stroke-dasharray="5,2" d="M488.14,-260.91C493.97,-264.05 499.89,-266.96 505.75,-269.5 544.86,-286.42 556.46,-287.59 598.75,-292.81 642.02,-298.15 687.67,-284.35 725.65,-266.89"/>
<polygon fill="black" stroke="black" points="734.54,-262.66 727.45,-271.02 731.13,-264.28 725.51,-266.96 725.51,-266.96 725.51,-266.96 731.13,-264.28 723.58,-262.9 734.54,-262.66"/>
<text xml:space="preserve" text-anchor="middle" x="610.75" y="-297.75" font-family="Courier New" font-size="10.00">uses</text>
</g>
<!-- OrderItem -->
<g id="node6" class="node">
<title>OrderItem</title>
<polygon fill="none" stroke="black" stroke-width="2" points="0,-173.75 0,-254.75 143.5,-254.75 143.5,-173.75 0,-173.75"/>
<text xml:space="preserve" text-anchor="middle" x="71.75" y="-239.35" font-family="Courier New" font-size="12.00">OrderItem</text>
<polyline fill="none" stroke="black" stroke-width="2" points="0,-232.5 143.5,-232.5"/>
<text xml:space="preserve" text-anchor="start" x="8" y="-217.1" font-family="Courier New" font-size="12.00">_book : Book</text>
<text xml:space="preserve" text-anchor="start" x="8" y="-202.85" font-family="Courier New" font-size="12.00">_qty, _unit_price</text>
<polyline fill="none" stroke="black" stroke-width="2" points="0,-196 143.5,-196"/>
<text xml:space="preserve" text-anchor="start" x="8" y="-180.6" font-family="Courier New" font-size="12.00">subtotal()</text>
</g>
<!-- Order&#45;&gt;OrderItem -->
<g id="edge4" class="edge">
<title>Order&#45;&gt;OrderItem</title>
<path fill="none" stroke="black" d="M117.31,-320.56C107.9,-298.83 97.48,-274.72 88.97,-255.07"/>
<polygon fill="black" stroke="black" points="117.28,-320.5 123.34,-324.42 122.05,-331.52 115.99,-327.6 117.28,-320.5"/>
<text xml:space="preserve" text-anchor="middle" x="110.4" y="-322.84" font-family="Courier New" font-size="10.00">1..*</text>
</g>
<!-- Payment -->
<g id="node7" class="node">
<title>Payment</title>
<polygon fill="none" stroke="black" stroke-width="2" points="179.75,-166.62 179.75,-261.88 315.75,-261.88 315.75,-166.62 179.75,-166.62"/>
<text xml:space="preserve" text-anchor="middle" x="247.75" y="-246.47" font-family="Courier New" font-size="12.00">Payment</text>
<polyline fill="none" stroke="black" stroke-width="2" points="179.75,-239.62 315.75,-239.62"/>
<text xml:space="preserve" text-anchor="start" x="187.75" y="-224.22" font-family="Courier New" font-size="12.00">payment_id</text>
<text xml:space="preserve" text-anchor="start" x="187.75" y="-209.97" font-family="Courier New" font-size="12.00">_amount, _method</text>
<polyline fill="none" stroke="black" stroke-width="2" points="179.75,-203.12 315.75,-203.12"/>
<text xml:space="preserve" text-anchor="start" x="187.75" y="-187.72" font-family="Courier New" font-size="12.00">process()</text>
<text xml:space="preserve" text-anchor="start" x="187.75" y="-173.47" font-family="Courier New" font-size="12.00">refund()</text>
</g>
<!-- Order&#45;&gt;Payment -->
<g id="edge5" class="edge">
<title>Order&#45;&gt;Payment</title>
<path fill="none" stroke="black" d="M179.78,-321.5C192.18,-302.11 205.85,-280.75 217.66,-262.29"/>
<polygon fill="black" stroke="black" points="179.79,-321.48 179.93,-328.69 173.32,-331.58 173.19,-324.37 179.79,-321.48"/>
<text xml:space="preserve" text-anchor="middle" x="169.84" y="-322.84" font-family="Courier New" font-size="10.00">1</text>
</g>
<!-- Inventory -->
<g id="node3" class="node">
<title>Inventory</title>
<polygon fill="none" stroke="black" stroke-width="2" points="524,-159.5 524,-269 697.5,-269 697.5,-159.5 524,-159.5"/>
<text xml:space="preserve" text-anchor="middle" x="610.75" y="-253.6" font-family="Courier New" font-size="12.00">«Singleton» Inventory</text>
<polyline fill="none" stroke="black" stroke-width="2" points="524,-246.75 697.5,-246.75"/>
<text xml:space="preserve" text-anchor="start" x="532" y="-231.35" font-family="Courier New" font-size="12.00">_catalogue : dict</text>
<text xml:space="preserve" text-anchor="start" x="532" y="-217.1" font-family="Courier New" font-size="12.00">_observers : list</text>
<polyline fill="none" stroke="black" stroke-width="2" points="524,-210.25 697.5,-210.25"/>
<text xml:space="preserve" text-anchor="start" x="532" y="-194.85" font-family="Courier New" font-size="12.00">add_book()</text>
<text xml:space="preserve" text-anchor="start" x="532" y="-180.6" font-family="Courier New" font-size="12.00">get_book(isbn)</text>
<text xml:space="preserve" text-anchor="start" x="532" y="-166.35" font-family="Courier New" font-size="12.00">notify()</text>
</g>
<!-- Book -->
<g id="node8" class="node">
<title>Book</title>
<polygon fill="none" stroke="black" stroke-width="2" points="714.75,-0.5 714.75,-95.75 910.75,-95.75 910.75,-0.5 714.75,-0.5"/>
<text xml:space="preserve" text-anchor="middle" x="812.75" y="-80.35" font-family="Courier New" font-size="12.00">«abstract» Book</text>
<polyline fill="none" stroke="black" stroke-width="2" points="714.75,-73.5 910.75,-73.5"/>
<text xml:space="preserve" text-anchor="start" x="722.75" y="-58.1" font-family="Courier New" font-size="12.00">isbn, title, author</text>
<text xml:space="preserve" text-anchor="start" x="722.75" y="-43.85" font-family="Courier New" font-size="12.00">_price, _stock</text>
<polyline fill="none" stroke="black" stroke-width="2" points="714.75,-37 910.75,-37"/>
<text xml:space="preserve" text-anchor="start" x="722.75" y="-21.6" font-family="Courier New" font-size="12.00">get_details() «abstract»</text>
<text xml:space="preserve" text-anchor="start" x="722.75" y="-7.35" font-family="Courier New" font-size="12.00">apply_discount()</text>
</g>
<!-- Inventory&#45;&gt;Book -->
<g id="edge7" class="edge">
<title>Inventory&#45;&gt;Book</title>
<path fill="none" stroke="black" d="M687.28,-151.07C709.72,-132.84 733.87,-113.22 754.93,-96.1"/>
<polygon fill="none" stroke="black" points="687.47,-150.92 685.33,-157.81 678.15,-158.49 680.29,-151.6 687.47,-150.92"/>
<text xml:space="preserve" text-anchor="middle" x="665.45" y="-149.55" font-family="Courier New" font-size="10.00">0..*</text>
</g>
<!-- PremiumCustomer -->
<g id="node4" class="node">
<title>PremiumCustomer</title>
<polygon fill="none" stroke="black" stroke-width="2" points="340.5,-339.88 340.5,-420.88 499,-420.88 499,-339.88 340.5,-339.88"/>
<text xml:space="preserve" text-anchor="middle" x="419.75" y="-405.48" font-family="Courier New" font-size="12.00">PremiumCustomer</text>
<polyline fill="none" stroke="black" stroke-width="2" points="340.5,-398.62 499,-398.62"/>
<text xml:space="preserve" text-anchor="start" x="348.5" y="-383.23" font-family="Courier New" font-size="12.00">_loyalty_pts</text>
<polyline fill="none" stroke="black" stroke-width="2" points="340.5,-376.38 499,-376.38"/>
<text xml:space="preserve" text-anchor="start" x="348.5" y="-360.98" font-family="Courier New" font-size="12.00">add_points()</text>
<text xml:space="preserve" text-anchor="start" x="348.5" y="-346.73" font-family="Courier New" font-size="12.00">get_discount_rate()</text>
</g>
<!-- PremiumCustomer&#45;&gt;Customer -->
<g id="edge1" class="edge">
<title>PremiumCustomer&#45;&gt;Customer</title>
<path fill="none" stroke="black" d="M419.75,-339.64C419.75,-319.86 419.75,-295.56 419.75,-273.7"/>
<polygon fill="none" stroke="black" points="423.25,-273.71 419.75,-263.71 416.25,-273.71 423.25,-273.71"/>
<text xml:space="preserve" text-anchor="middle" x="440.75" y="-297.75" font-family="Courier New" font-size="10.00">extends</text>
</g>
<!-- ShoppingCart&#45;&gt;Book -->
<g id="edge6" class="edge">
<title>ShoppingCart&#45;&gt;Book</title>
<path fill="none" stroke="black" d="M812.75,-153.2C812.75,-134.4 812.75,-113.93 812.75,-96.16"/>
<polygon fill="none" stroke="black" points="812.75,-153.32 816.75,-159.32 812.75,-165.32 808.75,-159.32 812.75,-153.32"/>
<text xml:space="preserve" text-anchor="middle" x="800.75" y="-156.72" font-family="Courier New" font-size="10.00">0..*</text>
</g>
<!-- OrderItem&#45;&gt;Book -->
<g id="edge10" class="edge">
<title>OrderItem&#45;&gt;Book</title>
<path fill="none" stroke="black" stroke-dasharray="5,2" d="M130.69,-173.5C140.74,-167.97 151.31,-162.87 161.75,-159 344.43,-91.31 571.51,-65.07 703.5,-55.08"/>
<polygon fill="black" stroke="black" points="713.19,-54.36 703.55,-59.59 709.42,-54.64 703.22,-55.1 703.22,-55.1 703.22,-55.1 709.42,-54.64 702.89,-50.61 713.19,-54.36"/>
<text xml:space="preserve" text-anchor="middle" x="290.93" y="-124.5" font-family="Courier New" font-size="10.00">ref</text>
</g>
<!-- DigitalBook -->
<g id="node9" class="node">
<title>DigitalBook</title>
<polygon fill="none" stroke="black" stroke-width="2" points="928,-166.62 928,-261.88 1041.5,-261.88 1041.5,-166.62 928,-166.62"/>
<text xml:space="preserve" text-anchor="middle" x="984.75" y="-246.47" font-family="Courier New" font-size="12.00">DigitalBook</text>
<polyline fill="none" stroke="black" stroke-width="2" points="928,-239.62 1041.5,-239.62"/>
<text xml:space="preserve" text-anchor="start" x="936" y="-224.22" font-family="Courier New" font-size="12.00">file_format</text>
<text xml:space="preserve" text-anchor="start" x="936" y="-209.97" font-family="Courier New" font-size="12.00">file_size</text>
<polyline fill="none" stroke="black" stroke-width="2" points="928,-203.12 1041.5,-203.12"/>
<text xml:space="preserve" text-anchor="start" x="936" y="-187.72" font-family="Courier New" font-size="12.00">get_details()</text>
<text xml:space="preserve" text-anchor="start" x="936" y="-173.47" font-family="Courier New" font-size="12.00">download()</text>
</g>
<!-- DigitalBook&#45;&gt;Book -->
<g id="edge2" class="edge">
<title>DigitalBook&#45;&gt;Book</title>
<path fill="none" stroke="black" d="M935.46,-166.22C915.13,-146.82 891.43,-124.2 870.31,-104.05"/>
<polygon fill="none" stroke="black" points="872.79,-101.58 863.14,-97.21 867.96,-106.64 872.79,-101.58"/>
<text xml:space="preserve" text-anchor="middle" x="919.75" y="-124.5" font-family="Courier New" font-size="10.00">extends</text>
</g>
<!-- PhysicalBook -->
<g id="node10" class="node">
<title>PhysicalBook</title>
<polygon fill="none" stroke="black" stroke-width="2" points="1077.5,-166.62 1077.5,-261.88 1236,-261.88 1236,-166.62 1077.5,-166.62"/>
<text xml:space="preserve" text-anchor="middle" x="1156.75" y="-246.47" font-family="Courier New" font-size="12.00">PhysicalBook</text>
<polyline fill="none" stroke="black" stroke-width="2" points="1077.5,-239.62 1236,-239.62"/>
<text xml:space="preserve" text-anchor="start" x="1085.5" y="-224.22" font-family="Courier New" font-size="12.00">weight</text>
<text xml:space="preserve" text-anchor="start" x="1085.5" y="-209.97" font-family="Courier New" font-size="12.00">warehouse</text>
<polyline fill="none" stroke="black" stroke-width="2" points="1077.5,-203.12 1236,-203.12"/>
<text xml:space="preserve" text-anchor="start" x="1085.5" y="-187.72" font-family="Courier New" font-size="12.00">get_details()</text>
<text xml:space="preserve" text-anchor="start" x="1085.5" y="-173.47" font-family="Courier New" font-size="12.00">get_shipping_cost()</text>
</g>
<!-- PhysicalBook&#45;&gt;Book -->
<g id="edge3" class="edge">
<title>PhysicalBook&#45;&gt;Book</title>
<path fill="none" stroke="black" d="M1077.13,-167.96C1071.28,-164.87 1065.44,-161.85 1059.75,-159 1015.07,-136.63 964.83,-113.86 921.39,-94.9"/>
<polygon fill="none" stroke="black" points="923.03,-91.79 912.47,-91.01 920.24,-98.21 923.03,-91.79"/>
<text xml:space="preserve" text-anchor="middle" x="1027.42" y="-124.5" font-family="Courier New" font-size="10.00">extends</text>
</g>
</g>
</svg>
