<svg xmlns="http://www.w3.org/2000/svg" viewBox="0 0 760 462" width="760" height="462" font-family="DM Sans, system-ui, -apple-system, Segoe UI, sans-serif">
<defs><marker id="ah" viewBox="0 0 10 10" refX="9" refY="5" markerWidth="7" markerHeight="7" orient="auto-start-reverse"><path d="M0,0 L10,5 L0,10 z" fill="#475569"/></marker><marker id="ahr" viewBox="0 0 10 10" refX="9" refY="5" markerWidth="7" markerHeight="7" orient="auto-start-reverse"><path d="M0,0 L10,5 L0,10 z" fill="#DC2626"/></marker><marker id="ahb" viewBox="0 0 10 10" refX="9" refY="5" markerWidth="7" markerHeight="7" orient="auto-start-reverse"><path d="M0,0 L10,5 L0,10 z" fill="#2563EB"/></marker><marker id="ahg" viewBox="0 0 10 10" refX="9" refY="5" markerWidth="7" markerHeight="7" orient="auto-start-reverse"><path d="M0,0 L10,5 L0,10 z" fill="#94A3B8"/></marker></defs>
<rect x="8" y="6" width="240" height="206" rx="8" fill="#FFFFFF" stroke="#E2E8F0" stroke-width="1.5"/>
<text x="20" y="28" font-size="13" text-anchor="start" fill="#2563EB" font-weight="700">Variational autoencoder</text>
<line x1="18.0" y1="184.0" x2="238.0" y2="184.0" stroke="#E2E8F0" stroke-width="1"/>
<text x="128.0" y="202" font-size="12" text-anchor="middle" fill="#1A2E4A" font-weight="600">maximise ELBO</text>
<rect x="260" y="6" width="240" height="206" rx="8" fill="#FFFFFF" stroke="#E2E8F0" stroke-width="1.5"/>
<text x="272" y="28" font-size="13" text-anchor="start" fill="#C2410C" font-weight="700">GAN</text>
<line x1="270.0" y1="184.0" x2="490.0" y2="184.0" stroke="#E2E8F0" stroke-width="1"/>
<text x="380.0" y="202" font-size="12" text-anchor="middle" fill="#1A2E4A" font-weight="600">minimax: min<tspan dy="4" font-size="10">G</tspan><tspan dy="-4">​</tspan> max<tspan dy="4" font-size="10">D</tspan><tspan dy="-4">​</tspan> <tspan font-style="italic">V</tspan>(<tspan font-style="italic">G</tspan>, <tspan font-style="italic">D</tspan>)</text>
<rect x="512" y="6" width="240" height="206" rx="8" fill="#FFFFFF" stroke="#E2E8F0" stroke-width="1.5"/>
<text x="524" y="28" font-size="13" text-anchor="start" fill="#7E22CE" font-weight="700">Diffusion model</text>
<line x1="522.0" y1="184.0" x2="742.0" y2="184.0" stroke="#E2E8F0" stroke-width="1"/>
<text x="632.0" y="202" font-size="12" text-anchor="middle" fill="#1A2E4A" font-weight="600">squared error on the added noise</text>
<rect x="17.0" y="60.0" width="30" height="28" rx="6" fill="#F0F9FF" stroke="#0EA5E9" stroke-width="1.4"/>
<text x="32" y="78.68" font-size="13" text-anchor="middle" fill="#1A2E4A"><tspan font-weight="700">x</tspan></text>
<rect x="64.0" y="59.0" width="76" height="30" rx="6" fill="#DBEAFE" stroke="#2563EB" stroke-width="1.4"/>
<text x="102" y="78.32" font-size="12" text-anchor="middle" fill="#1A2E4A">encoder</text>
<rect x="167.0" y="59.0" width="62" height="30" rx="6" fill="#FFFFFF" stroke="#2563EB" stroke-width="1.4"/>
<text x="198" y="78.68" font-size="13" text-anchor="middle" fill="#1A2E4A">(<tspan font-weight="700">μ</tspan>, <tspan font-weight="700">σ</tspan>)</text>
<rect x="183.0" y="124.0" width="30" height="28" rx="6" fill="#F0FDF4" stroke="#15803D" stroke-width="1.4"/>
<text x="198" y="142.68" font-size="13" text-anchor="middle" fill="#1A2E4A"><tspan font-weight="700">z</tspan></text>
<rect x="64.0" y="123.0" width="76" height="30" rx="6" fill="#FFF7ED" stroke="#C2410C" stroke-width="1.4"/>
<text x="102" y="142.32" font-size="12" text-anchor="middle" fill="#1A2E4A">decoder</text>
<rect x="17.0" y="124.0" width="30" height="28" rx="6" fill="#F0F9FF" stroke="#0EA5E9" stroke-width="1.4"/>
<text x="32" y="142.68" font-size="13" text-anchor="middle" fill="#1A2E4A"><tspan font-weight="700">x̂</tspan></text>
<line x1="47.0" y1="74.0" x2="63.0" y2="74.0" stroke="#475569" stroke-width="1.5" marker-end="url(#ah)"/>
<line x1="140.0" y1="74.0" x2="166.0" y2="74.0" stroke="#475569" stroke-width="1.5" marker-end="url(#ah)"/>
<line x1="198.0" y1="89.0" x2="198.0" y2="123.0" stroke="#475569" stroke-width="1.5" marker-end="url(#ah)"/>
<line x1="183.0" y1="138.0" x2="141.0" y2="138.0" stroke="#475569" stroke-width="1.5" marker-end="url(#ah)"/>
<line x1="64.0" y1="138.0" x2="48.0" y2="138.0" stroke="#475569" stroke-width="1.5" marker-end="url(#ah)"/>
<rect x="268.0" y="54.0" width="28" height="28" rx="6" fill="#FFFFFF" stroke="#475569" stroke-width="1.4"/>
<text x="282" y="72.68" font-size="13" text-anchor="middle" fill="#1A2E4A"><tspan font-weight="700">z</tspan></text>
<rect x="311.0" y="53.0" width="38" height="30" rx="6" fill="#FFF7ED" stroke="#C2410C" stroke-width="1.4"/>
<text x="330" y="73.4" font-size="15" text-anchor="middle" fill="#C2410C" font-weight="700"><tspan font-style="italic">G</tspan></text>
<rect x="367.0" y="53.0" width="66" height="30" rx="6" fill="#FFF7ED" stroke="#C2410C" stroke-width="1.4"/>
<text x="400" y="72.32" font-size="12" text-anchor="middle" fill="#1A2E4A">fake <tspan font-weight="700">x</tspan></text>
<rect x="367.0" y="133.0" width="66" height="30" rx="6" fill="#F0FDF4" stroke="#15803D" stroke-width="1.4"/>
<text x="400" y="152.32" font-size="12" text-anchor="middle" fill="#1A2E4A">real <tspan font-weight="700">x</tspan></text>
<rect x="450.0" y="93.0" width="36" height="30" rx="6" fill="#FAF5FF" stroke="#7E22CE" stroke-width="1.4"/>
<text x="468" y="113.4" font-size="15" text-anchor="middle" fill="#7E22CE" font-weight="700"><tspan font-style="italic">D</tspan></text>
<line x1="296.0" y1="68.0" x2="310.0" y2="68.0" stroke="#475569" stroke-width="1.5" marker-end="url(#ah)"/>
<line x1="349.0" y1="68.0" x2="366.0" y2="68.0" stroke="#475569" stroke-width="1.5" marker-end="url(#ah)"/>
<line x1="434.0" y1="76.0" x2="456.0" y2="92.0" stroke="#475569" stroke-width="1.5" marker-end="url(#ah)"/>
<line x1="434.0" y1="140.0" x2="456.0" y2="124.0" stroke="#475569" stroke-width="1.5" marker-end="url(#ah)"/>
<text x="468" y="140" font-size="11" text-anchor="middle" fill="#7E22CE">real?</text>
<rect x="524.0" y="69.0" width="36" height="30" rx="6" fill="#DBEAFE" stroke="#1A2E4A" stroke-width="1.4"/>
<text x="542" y="88.68" font-size="13" text-anchor="middle" fill="#1A2E4A"><tspan font-weight="700">x</tspan><tspan dy="4" font-size="10">0</tspan><tspan dy="-4">​</tspan></text>
<rect x="582.0" y="69.0" width="36" height="30" rx="6" fill="#EEF2F7" stroke="#475569" stroke-width="1.4"/>
<text x="600" y="88.68" font-size="13" text-anchor="middle" fill="#1A2E4A"><tspan font-weight="700">x</tspan><tspan dy="4" font-size="10">1</tspan><tspan dy="-4">​</tspan></text>
<text x="652" y="89" font-size="16" text-anchor="middle" fill="#475569">⋯</text>
<rect x="686.0" y="69.0" width="36" height="30" rx="6" fill="#E2E8F0" stroke="#475569" stroke-width="1.4"/>
<text x="704" y="88.68" font-size="13" text-anchor="middle" fill="#1A2E4A"><tspan font-weight="700">x</tspan><tspan dy="4" font-size="10"><tspan font-style="italic">T</tspan></tspan><tspan dy="-4">​</tspan></text>
<line x1="560.0" y1="84.0" x2="582.0" y2="84.0" stroke="#475569" stroke-width="1.5" marker-end="url(#ah)"/>
<line x1="618.0" y1="84.0" x2="640.0" y2="84.0" stroke="#475569" stroke-width="1.5" marker-end="url(#ah)"/>
<line x1="664.0" y1="84.0" x2="686.0" y2="84.0" stroke="#475569" stroke-width="1.5" marker-end="url(#ah)"/>
<text x="571.0" y="60" font-size="11" text-anchor="middle" fill="#475569">add noise</text>
<text x="704" y="116" font-size="12" text-anchor="middle" fill="#1A2E4A">~ 𝒩(<tspan font-weight="700">0</tspan>, <tspan font-weight="700">I</tspan>)</text>
<path d="M704,124 L704,138 L542,138 L542,101" fill="none" stroke="#DC2626" stroke-width="1.6" stroke-dasharray="5 4" marker-end="url(#ahr)"/>
<line x1="600.0" y1="138.0" x2="600.0" y2="101.0" stroke="#DC2626" stroke-width="1.5" stroke-dasharray="5 4" marker-end="url(#ahr)"/>
<line x1="652.0" y1="138.0" x2="652.0" y2="94.0" stroke="#DC2626" stroke-width="1.5" stroke-dasharray="5 4" marker-end="url(#ahr)"/>
<text x="623.0" y="156" font-size="12" text-anchor="middle" fill="#DC2626" font-weight="600">learned denoiser <tspan font-weight="700">ε</tspan><tspan dy="4" font-size="10">θ</tspan><tspan dy="-4">​</tspan>,</text>
<text x="623.0" y="172" font-size="12" text-anchor="middle" fill="#DC2626">tens to hundreds of steps</text>
<rect x="8" y="222" width="177" height="236" rx="8" fill="#FFFFFF" stroke="#E2E8F0" stroke-width="1.5"/>
<text x="20" y="244" font-size="13" text-anchor="start" fill="#15803D" font-weight="700">Graph neural network</text>
<line x1="18.0" y1="430.0" x2="175.0" y2="430.0" stroke="#E2E8F0" stroke-width="1"/>
<text x="96.5" y="448" font-size="11.5" text-anchor="middle" fill="#1A2E4A" font-weight="600">supervised loss on labels</text>
<rect x="197" y="222" width="177" height="236" rx="8" fill="#FFFFFF" stroke="#E2E8F0" stroke-width="1.5"/>
<text x="209" y="244" font-size="13" text-anchor="start" fill="#B45309" font-weight="700">PINN</text>
<line x1="207.0" y1="430.0" x2="364.0" y2="430.0" stroke="#E2E8F0" stroke-width="1"/>
<text x="285.5" y="448" font-size="11.5" text-anchor="middle" fill="#1A2E4A" font-weight="600">residual + data + boundary</text>
<rect x="386" y="222" width="177" height="236" rx="8" fill="#FFFFFF" stroke="#E2E8F0" stroke-width="1.5"/>
<text x="398" y="244" font-size="13" text-anchor="start" fill="#0EA5E9" font-weight="700">Contrastive learning</text>
<line x1="396.0" y1="430.0" x2="553.0" y2="430.0" stroke="#E2E8F0" stroke-width="1"/>
<text x="474.5" y="448" font-size="11.5" text-anchor="middle" fill="#1A2E4A" font-weight="600">InfoNCE over <tspan font-style="italic">N</tspan> candidates</text>
<rect x="575" y="222" width="177" height="236" rx="8" fill="#FFFFFF" stroke="#E2E8F0" stroke-width="1.5"/>
<text x="587" y="244" font-size="13" text-anchor="start" fill="#2563EB" font-weight="700">Mixture of experts</text>
<line x1="585.0" y1="430.0" x2="742.0" y2="430.0" stroke="#E2E8F0" stroke-width="1"/>
<text x="663.5" y="448" font-size="11.5" text-anchor="middle" fill="#1A2E4A" font-weight="600">any loss; <tspan font-style="italic">k</tspan> of <tspan font-style="italic">E</tspan> experts</text>
<line x1="47.1" y1="310.3" x2="91.5" y2="280.2" stroke="#94A3B8" stroke-width="1.3"/>
<line x1="141.0" y1="303.0" x2="141.0" y2="349.0" stroke="#94A3B8" stroke-width="1.3"/>
<line x1="141.0" y1="349.0" x2="62.6" y2="361.2" stroke="#94A3B8" stroke-width="1.3"/>
<line x1="91.5" y1="280.2" x2="141.0" y2="303.0" stroke="#94A3B8" stroke-width="1.3"/>
<line x1="56.7" y1="313.3" x2="81.7" y2="321.4" stroke="#15803D" stroke-width="1.6" marker-end="url(#ah)"/>
<line x1="92.5" y1="290.1" x2="94.5" y2="311.1" stroke="#15803D" stroke-width="1.6" marker-end="url(#ah)"/>
<line x1="132.1" y1="307.5" x2="109.4" y2="319.2" stroke="#15803D" stroke-width="1.6" marker-end="url(#ah)"/>
<line x1="132.1" y1="344.5" x2="109.4" y2="332.8" stroke="#15803D" stroke-width="1.6" marker-end="url(#ah)"/>
<line x1="69.5" y1="354.0" x2="85.7" y2="336.9" stroke="#15803D" stroke-width="1.6" marker-end="url(#ah)"/>
<circle cx="47.13598371913276" cy="310.26707340701927" r="8" fill="#FFFFFF" stroke="#1A2E4A" stroke-width="1.4"/>
<circle cx="91.46790137712178" cy="280.1750438877797" r="8" fill="#FFFFFF" stroke="#1A2E4A" stroke-width="1.4"/>
<circle cx="141.0333209967908" cy="303.0" r="8" fill="#FFFFFF" stroke="#1A2E4A" stroke-width="1.4"/>
<circle cx="141.03332099679082" cy="349.0" r="8" fill="#FFFFFF" stroke="#1A2E4A" stroke-width="1.4"/>
<circle cx="62.57504429629995" cy="361.238044383473" r="8" fill="#FFFFFF" stroke="#1A2E4A" stroke-width="1.4"/>
<circle cx="96" cy="326" r="12" fill="#F0FDF4" stroke="#15803D" stroke-width="2"/>
<text x="96" y="404" font-size="12" text-anchor="middle" fill="#475569">message passing</text>
<rect x="225.0" y="275.0" width="120" height="34" rx="6" fill="#FFFBEB" stroke="#B45309" stroke-width="1.4"/>
<text x="285" y="297.04" font-size="14" text-anchor="middle" fill="#1A2E4A"><tspan font-style="italic">u</tspan><tspan dy="4" font-size="10">θ</tspan><tspan dy="-4">​</tspan>(<tspan font-weight="700">x</tspan>, <tspan font-style="italic">t</tspan>)</text>
<text x="285" y="266" font-size="11" text-anchor="start" fill="#1A2E4A"></text>
<line x1="285.0" y1="310.0" x2="285.0" y2="344.0" stroke="#475569" stroke-width="1.5" marker-end="url(#ah)"/>
<text x="293" y="331" font-size="11" text-anchor="start" fill="#1A2E4A"></text>
<rect x="230.0" y="347.0" width="110" height="34" rx="6" fill="#FFFFFF" stroke="#1A2E4A" stroke-width="1.4"/>
<text x="285" y="369.04" font-size="14" text-anchor="middle" fill="#1A2E4A">𝒩[<tspan font-style="italic">u</tspan>] = 0</text>
<text x="285" y="404" font-size="12" text-anchor="middle" fill="#475569">residual loss: ‖𝒩[<tspan font-style="italic">u</tspan><tspan dy="4" font-size="10">θ</tspan><tspan dy="-4">​</tspan>]‖²</text>
<rect x="398" y="313" width="26" height="26" rx="4" fill="#F0F9FF" stroke="#0EA5E9" stroke-width="1.4"/>
<rect x="438" y="281" width="22" height="22" rx="4" fill="#F0F9FF" stroke="#0EA5E9" stroke-width="1.4"/>
<line x1="424.0" y1="320.0" x2="438.0" y2="298.0" stroke="#475569" stroke-width="1.5" marker-end="url(#ah)"/>
<line x1="461.0" y1="292.0" x2="473.0" y2="292.0" stroke="#475569" stroke-width="1.5" marker-end="url(#ah)"/>
<rect x="438" y="349" width="22" height="22" rx="4" fill="#DBEAFE" stroke="#0EA5E9" stroke-width="1.4"/>
<line x1="424.0" y1="332.0" x2="438.0" y2="354.0" stroke="#475569" stroke-width="1.5" marker-end="url(#ah)"/>
<line x1="461.0" y1="360.0" x2="473.0" y2="360.0" stroke="#475569" stroke-width="1.5" marker-end="url(#ah)"/>
<rect x="474" y="278" width="18" height="96" rx="5" fill="#DBEAFE" stroke="#2563EB" stroke-width="1.4"/>
<text x="483" y="330" font-size="11" text-anchor="start" fill="#1A2E4A"></text>
<text x="487" y="326" font-size="11" text-anchor="middle" fill="#2563EB" transform="rotate(-90 487 326)">encoder</text>
<circle cx="526" cy="326" r="27" fill="none" stroke="#94A3B8" stroke-width="1.2"/>
<line x1="493.0" y1="292.0" x2="543.4" y2="308.5" stroke="#2563EB" stroke-width="1.2" marker-end="url(#ahb)"/>
<line x1="493.0" y1="360.0" x2="546.9" y2="326.6" stroke="#2563EB" stroke-width="1.2" marker-end="url(#ahb)"/>
<circle cx="549.3826859021799" cy="312.5" r="4.5" fill="#15803D" stroke="#15803D" stroke-width="1"/>
<circle cx="552.8972568484771" cy="323.6467949458132" r="4.5" fill="#15803D" stroke="#15803D" stroke-width="1"/>
<circle cx="516.765456130207" cy="351.37170076121953" r="4" fill="#FFFFFF" stroke="#94A3B8" stroke-width="1.4"/>
<line x1="514.7" y1="357.0" x2="511.6" y2="365.5" stroke="#DC2626" stroke-width="1.2" marker-end="url(#ahr)"/>
<circle cx="499.4101906686704" cy="330.6885007970071" r="4" fill="#FFFFFF" stroke="#94A3B8" stroke-width="1.4"/>
<line x1="493.5" y1="331.7" x2="484.6" y2="333.3" stroke="#DC2626" stroke-width="1.2" marker-end="url(#ahr)"/>
<circle cx="508.6447345384634" cy="305.3168000357876" r="4" fill="#FFFFFF" stroke="#94A3B8" stroke-width="1.4"/>
<line x1="504.8" y1="300.7" x2="499.0" y2="293.8" stroke="#DC2626" stroke-width="1.2" marker-end="url(#ahr)"/>
<text x="474.5" y="392" font-size="11" text-anchor="middle" fill="#475569">two views pulled together</text>
<text x="474.5" y="407" font-size="11" text-anchor="middle" fill="#475569">others pushed apart</text>
<circle cx="592" cy="328" r="8" fill="#F0F9FF" stroke="#0EA5E9" stroke-width="1.4"/>
<rect x="615.0" y="314.0" width="44" height="28" rx="6" fill="#FFFFFF" stroke="#1A2E4A" stroke-width="1.4"/>
<text x="637" y="331.96" font-size="11" text-anchor="middle" fill="#1A2E4A">router</text>
<line x1="600.0" y1="328.0" x2="614.0" y2="328.0" stroke="#475569" stroke-width="1.5" marker-end="url(#ah)"/>
<rect x="679" y="269.5" width="34" height="12" rx="3" fill="#FFFFFF" stroke="#94A3B8" stroke-width="1.1"/>
<rect x="679" y="284.5" width="34" height="12" rx="3" fill="#DBEAFE" stroke="#2563EB" stroke-width="1.6"/>
<line x1="659.0" y1="324.0" x2="678.0" y2="290.5" stroke="#2563EB" stroke-width="1.5" marker-end="url(#ahb)"/>
<line x1="714.0" y1="290.5" x2="732.0" y2="322.0" stroke="#2563EB" stroke-width="1.5" marker-end="url(#ahb)"/>
<rect x="679" y="299.5" width="34" height="12" rx="3" fill="#FFFFFF" stroke="#94A3B8" stroke-width="1.1"/>
<rect x="679" y="314.5" width="34" height="12" rx="3" fill="#FFFFFF" stroke="#94A3B8" stroke-width="1.1"/>
<rect x="679" y="329.5" width="34" height="12" rx="3" fill="#FFFFFF" stroke="#94A3B8" stroke-width="1.1"/>
<rect x="679" y="344.5" width="34" height="12" rx="3" fill="#DBEAFE" stroke="#2563EB" stroke-width="1.6"/>
<line x1="659.0" y1="332.0" x2="678.0" y2="350.5" stroke="#2563EB" stroke-width="1.5" marker-end="url(#ahb)"/>
<line x1="714.0" y1="350.5" x2="732.0" y2="334.0" stroke="#2563EB" stroke-width="1.5" marker-end="url(#ahb)"/>
<rect x="679" y="359.5" width="34" height="12" rx="3" fill="#FFFFFF" stroke="#94A3B8" stroke-width="1.1"/>
<rect x="679" y="374.5" width="34" height="12" rx="3" fill="#FFFFFF" stroke="#94A3B8" stroke-width="1.1"/>
<circle cx="739" cy="328" r="8" fill="#FFFFFF" stroke="#1A2E4A" stroke-width="1.4"/>
<text x="739" y="332" font-size="11" text-anchor="middle" fill="#1A2E4A">Σ</text>
<text x="663.5" y="404" font-size="12" text-anchor="middle" fill="#475569">top-<tspan font-style="italic">k</tspan>: 2 of 8 experts</text>
</svg>
