<svg font-family="DM Sans, PingFang SC, Microsoft YaHei, Noto Sans SC, system-ui, sans-serif" xmlns="http://www.w3.org/2000/svg" viewBox="0 0 720 380" width="720" height="380">
<defs><marker id="arrow" viewBox="0 0 10 10" refX="9" refY="5" markerWidth="6" markerHeight="6" orient="auto-start-reverse"><path d="M0,0 L10,5 L0,10" fill="#475569"/></marker></defs>
<text x="35" y="35" font-size="14" fill="#1A2E4A" text-anchor="start">Static · useful slots 46.9%</text>
<text x="35" y="72" font-size="14" fill="#1A2E4A" text-anchor="start">1</text>
<rect x="75" y="55" width="600" height="22" rx="8" fill="#F1F5F9" stroke="#94A3B8" stroke-width="1.5"/>
<rect x="75.0" y="55" width="75.0" height="22" rx="8" fill="#DBEAFE" stroke="#2563EB" stroke-width="1.5"/>
<text x="35" y="100" font-size="14" fill="#1A2E4A" text-anchor="start">2</text>
<rect x="75" y="83" width="600" height="22" rx="8" fill="#F1F5F9" stroke="#94A3B8" stroke-width="1.5"/>
<rect x="75.0" y="83" width="150.0" height="22" rx="8" fill="#DBEAFE" stroke="#2563EB" stroke-width="1.5"/>
<text x="35" y="128" font-size="14" fill="#1A2E4A" text-anchor="start">3</text>
<rect x="75" y="111" width="600" height="22" rx="8" fill="#F1F5F9" stroke="#94A3B8" stroke-width="1.5"/>
<rect x="75.0" y="111" width="300.0" height="22" rx="8" fill="#DBEAFE" stroke="#2563EB" stroke-width="1.5"/>
<text x="35" y="156" font-size="14" fill="#1A2E4A" text-anchor="start">4</text>
<rect x="75" y="139" width="600" height="22" rx="8" fill="#F1F5F9" stroke="#94A3B8" stroke-width="1.5"/>
<rect x="75.0" y="139" width="600.0" height="22" rx="8" fill="#DBEAFE" stroke="#2563EB" stroke-width="1.5"/>
<text x="75" y="190" font-size="14" fill="#1A2E4A" text-anchor="start">0</text>
<text x="675" y="190" font-size="14" fill="#1A2E4A" text-anchor="end">16 s</text>
<text x="35" y="210" font-size="14" fill="#1A2E4A" text-anchor="start">Continuous · refilled slots</text>
<text x="35" y="247" font-size="14" fill="#1A2E4A" text-anchor="start">1</text>
<rect x="75" y="230" width="600" height="22" rx="8" fill="#F1F5F9" stroke="#94A3B8" stroke-width="1.5"/>
<rect x="75.0" y="230" width="75.0" height="22" rx="8" fill="#DBEAFE" stroke="#2563EB" stroke-width="1.5"/>
<rect x="150.0" y="230" width="75.0" height="22" rx="8" fill="#F0FDF4" stroke="#C2410C" stroke-width="1.5"/>
<rect x="225.0" y="230" width="75.0" height="22" rx="8" fill="#FFF7ED" stroke="#15803D" stroke-width="1.5"/>
<rect x="300.0" y="230" width="75.0" height="22" rx="8" fill="#FAF5FF" stroke="#7E22CE" stroke-width="1.5"/>
<rect x="375.0" y="230" width="75.0" height="22" rx="8" fill="#DBEAFE" stroke="#2563EB" stroke-width="1.5"/>
<rect x="450.0" y="230" width="75.0" height="22" rx="8" fill="#F0FDF4" stroke="#C2410C" stroke-width="1.5"/>
<rect x="525.0" y="230" width="75.0" height="22" rx="8" fill="#FFF7ED" stroke="#15803D" stroke-width="1.5"/>
<rect x="600.0" y="230" width="75.0" height="22" rx="8" fill="#FAF5FF" stroke="#7E22CE" stroke-width="1.5"/>
<text x="35" y="275" font-size="14" fill="#1A2E4A" text-anchor="start">2</text>
<rect x="75" y="258" width="600" height="22" rx="8" fill="#F1F5F9" stroke="#94A3B8" stroke-width="1.5"/>
<rect x="75.0" y="258" width="150.0" height="22" rx="8" fill="#DBEAFE" stroke="#2563EB" stroke-width="1.5"/>
<rect x="225.0" y="258" width="150.0" height="22" rx="8" fill="#F0FDF4" stroke="#C2410C" stroke-width="1.5"/>
<rect x="375.0" y="258" width="150.0" height="22" rx="8" fill="#FFF7ED" stroke="#15803D" stroke-width="1.5"/>
<rect x="525.0" y="258" width="150.0" height="22" rx="8" fill="#FAF5FF" stroke="#7E22CE" stroke-width="1.5"/>
<text x="35" y="303" font-size="14" fill="#1A2E4A" text-anchor="start">3</text>
<rect x="75" y="286" width="600" height="22" rx="8" fill="#F1F5F9" stroke="#94A3B8" stroke-width="1.5"/>
<rect x="75.0" y="286" width="300.0" height="22" rx="8" fill="#DBEAFE" stroke="#2563EB" stroke-width="1.5"/>
<rect x="375.0" y="286" width="300.0" height="22" rx="8" fill="#F0FDF4" stroke="#C2410C" stroke-width="1.5"/>
<text x="35" y="331" font-size="14" fill="#1A2E4A" text-anchor="start">4</text>
<rect x="75" y="314" width="600" height="22" rx="8" fill="#F1F5F9" stroke="#94A3B8" stroke-width="1.5"/>
<rect x="75.0" y="314" width="600.0" height="22" rx="8" fill="#DBEAFE" stroke="#2563EB" stroke-width="1.5"/>
<text x="75" y="365" font-size="14" fill="#1A2E4A" text-anchor="start">0</text>
<text x="675" y="365" font-size="14" fill="#1A2E4A" text-anchor="end">16 s</text>
</svg>
