<svg xmlns="http://www.w3.org/2000/svg" viewBox="0 0 740 470" width="740" height="470" font-family="DM Sans, system-ui, -apple-system, Segoe UI, sans-serif" font-size="13" fill="#1A2E4A">
<defs><marker id="ah" viewBox="0 0 10 10" refX="9" refY="5" markerWidth="7" markerHeight="7" orient="auto-start-reverse"><path d="M0,0 L10,5 L0,10 z" fill="#475569"/></marker><marker id="ahr" viewBox="0 0 10 10" refX="9" refY="5" markerWidth="7" markerHeight="7" orient="auto-start-reverse"><path d="M0,0 L10,5 L0,10 z" fill="#DC2626"/></marker><marker id="ahb" viewBox="0 0 10 10" refX="9" refY="5" markerWidth="7" markerHeight="7" orient="auto-start-reverse"><path d="M0,0 L10,5 L0,10 z" fill="#2563EB"/></marker><marker id="ahg" viewBox="0 0 10 10" refX="9" refY="5" markerWidth="7" markerHeight="7" orient="auto-start-reverse"><path d="M0,0 L10,5 L0,10 z" fill="#15803D"/></marker></defs>
<text x="215" y="22" font-size="14" text-anchor="middle" fill="#1A2E4A" font-weight="700">Original design</text>
<text x="215" y="52" font-size="14" text-anchor="middle" fill="#1A2E4A" font-weight="700"><tspan font-style="italic">h</tspan><tspan dy="4" font-size="10"><tspan font-style="italic">l</tspan></tspan><tspan dy="-4"> </tspan></text>
<line x1="215" y1="58" x2="215" y2="62" stroke="#475569" stroke-width="1.5"/>
<line x1="215" y1="62" x2="215" y2="86" stroke="#475569" stroke-width="1.5" marker-end="url(#ah)"/>
<rect x="160.0" y="86" width="110" height="30" rx="8" fill="#DBEAFE" stroke="#2563EB" stroke-width="1.5"/>
<text x="215.0" y="105.5" font-size="13" text-anchor="middle" fill="#1A2E4A">conv 3×3</text>
<rect x="160.0" y="130" width="110" height="30" rx="8" fill="#FAF5FF" stroke="#7E22CE" stroke-width="1.5"/>
<text x="215.0" y="149.6" font-size="13" text-anchor="middle" fill="#1A2E4A">BN</text>
<rect x="160.0" y="174" width="110" height="30" rx="8" fill="#F0FDF4" stroke="#15803D" stroke-width="1.5"/>
<text x="215.0" y="193.6" font-size="13" text-anchor="middle" fill="#1A2E4A">ReLU</text>
<rect x="160.0" y="218" width="110" height="30" rx="8" fill="#DBEAFE" stroke="#2563EB" stroke-width="1.5"/>
<text x="215.0" y="237.6" font-size="13" text-anchor="middle" fill="#1A2E4A">conv 3×3</text>
<rect x="160.0" y="262" width="110" height="30" rx="8" fill="#FAF5FF" stroke="#7E22CE" stroke-width="1.5"/>
<text x="215.0" y="281.6" font-size="13" text-anchor="middle" fill="#1A2E4A">BN</text>
<line x1="215" y1="116" x2="215" y2="130" stroke="#475569" stroke-width="1.5" marker-end="url(#ah)"/>
<line x1="215" y1="160" x2="215" y2="174" stroke="#475569" stroke-width="1.5" marker-end="url(#ah)"/>
<line x1="215" y1="204" x2="215" y2="218" stroke="#475569" stroke-width="1.5" marker-end="url(#ah)"/>
<line x1="215" y1="248" x2="215" y2="262" stroke="#475569" stroke-width="1.5" marker-end="url(#ah)"/>
<line x1="215" y1="292" x2="215" y2="315" stroke="#475569" stroke-width="1.5" marker-end="url(#ah)"/>
<path d="M215,62 H40 V328 H202" fill="none" stroke="#475569" stroke-width="1.5" marker-end="url(#ah)"/>
<circle cx="215" cy="328" r="13" fill="#fff" stroke="#1A2E4A" stroke-width="1.8"/><line x1="208" y1="328" x2="222" y2="328" stroke="#1A2E4A" stroke-width="1.8"/>
<line x1="215" y1="321" x2="215" y2="335" stroke="#1A2E4A" stroke-width="1.8"/>
<line x1="215" y1="341" x2="215" y2="361" stroke="#475569" stroke-width="1.5" marker-end="url(#ah)"/>
<rect x="160.0" y="361" width="110" height="30" rx="8" fill="#F0FDF4" stroke="#15803D" stroke-width="1.5"/>
<text x="215.0" y="380.6" font-size="13" text-anchor="middle" fill="#1A2E4A">ReLU</text>
<line x1="215" y1="391" x2="215" y2="415" stroke="#475569" stroke-width="1.5" marker-end="url(#ah)"/>
<text x="215" y="433" font-size="14" text-anchor="middle" fill="#1A2E4A" font-weight="700"><tspan font-style="italic">h</tspan><tspan dy="4" font-size="10"><tspan font-style="italic">l</tspan>+1</tspan><tspan dy="-4"> </tspan></text>
<text x="585" y="22" font-size="14" text-anchor="middle" fill="#1A2E4A" font-weight="700">Pre-activation variant</text>
<text x="585" y="52" font-size="14" text-anchor="middle" fill="#1A2E4A" font-weight="700"><tspan font-style="italic">h</tspan><tspan dy="4" font-size="10"><tspan font-style="italic">l</tspan></tspan><tspan dy="-4"> </tspan></text>
<line x1="585" y1="58" x2="585" y2="62" stroke="#475569" stroke-width="1.5"/>
<line x1="585" y1="62" x2="585" y2="86" stroke="#475569" stroke-width="1.5" marker-end="url(#ah)"/>
<rect x="530.0" y="86" width="110" height="30" rx="8" fill="#FAF5FF" stroke="#7E22CE" stroke-width="1.5"/>
<text x="585.0" y="105.5" font-size="13" text-anchor="middle" fill="#1A2E4A">BN</text>
<rect x="530.0" y="130" width="110" height="30" rx="8" fill="#F0FDF4" stroke="#15803D" stroke-width="1.5"/>
<text x="585.0" y="149.6" font-size="13" text-anchor="middle" fill="#1A2E4A">ReLU</text>
<rect x="530.0" y="174" width="110" height="30" rx="8" fill="#DBEAFE" stroke="#2563EB" stroke-width="1.5"/>
<text x="585.0" y="193.6" font-size="13" text-anchor="middle" fill="#1A2E4A">conv 3×3</text>
<rect x="530.0" y="218" width="110" height="30" rx="8" fill="#FAF5FF" stroke="#7E22CE" stroke-width="1.5"/>
<text x="585.0" y="237.6" font-size="13" text-anchor="middle" fill="#1A2E4A">BN</text>
<rect x="530.0" y="262" width="110" height="30" rx="8" fill="#F0FDF4" stroke="#15803D" stroke-width="1.5"/>
<text x="585.0" y="281.6" font-size="13" text-anchor="middle" fill="#1A2E4A">ReLU</text>
<rect x="530.0" y="306" width="110" height="30" rx="8" fill="#DBEAFE" stroke="#2563EB" stroke-width="1.5"/>
<text x="585.0" y="325.6" font-size="13" text-anchor="middle" fill="#1A2E4A">conv 3×3</text>
<line x1="585" y1="116" x2="585" y2="130" stroke="#475569" stroke-width="1.5" marker-end="url(#ah)"/>
<line x1="585" y1="160" x2="585" y2="174" stroke="#475569" stroke-width="1.5" marker-end="url(#ah)"/>
<line x1="585" y1="204" x2="585" y2="218" stroke="#475569" stroke-width="1.5" marker-end="url(#ah)"/>
<line x1="585" y1="248" x2="585" y2="262" stroke="#475569" stroke-width="1.5" marker-end="url(#ah)"/>
<line x1="585" y1="292" x2="585" y2="306" stroke="#475569" stroke-width="1.5" marker-end="url(#ah)"/>
<line x1="585" y1="336" x2="585" y2="359" stroke="#475569" stroke-width="1.5" marker-end="url(#ah)"/>
<path d="M585,62 H410 V372 H572" fill="none" stroke="#475569" stroke-width="1.5" marker-end="url(#ah)"/>
<circle cx="585" cy="372" r="13" fill="#fff" stroke="#1A2E4A" stroke-width="1.8"/><line x1="578" y1="372" x2="592" y2="372" stroke="#1A2E4A" stroke-width="1.8"/>
<line x1="585" y1="365" x2="585" y2="379" stroke="#1A2E4A" stroke-width="1.8"/>
<line x1="585" y1="385" x2="585" y2="409" stroke="#475569" stroke-width="1.5" marker-end="url(#ah)"/>
<text x="585" y="427" font-size="14" text-anchor="middle" fill="#1A2E4A" font-weight="700"><tspan font-style="italic">h</tspan><tspan dy="4" font-size="10"><tspan font-style="italic">l</tspan>+1</tspan><tspan dy="-4"> </tspan></text>
<line x1="369" y1="36" x2="369" y2="450" stroke="#E2E8F0" stroke-width="1.5"/>
<text x="48" y="190" font-size="12" text-anchor="start" fill="#475569">identity path</text>
<text x="48" y="205" font-size="12" text-anchor="start" fill="#475569">(strided 1×1 conv</text>
<text x="48" y="220" font-size="12" text-anchor="start" fill="#475569">+ BN if shapes</text>
<text x="48" y="235" font-size="12" text-anchor="start" fill="#475569">differ)</text>
<text x="418" y="190" font-size="12" text-anchor="start" fill="#475569">identity path</text>
<text x="585" y="464" font-size="12" text-anchor="middle" fill="#475569">nothing follows the addition</text>
</svg>
