<svg xmlns="http://www.w3.org/2000/svg" viewBox="0 0 680 266" role="img" aria-labelledby="t">
  <title id="t">通过复刻做贡献</title>
  <defs><marker id="arrow" viewBox="0 0 10 10" refX="9" refY="5" markerWidth="8" markerHeight="8" orient="auto"><path d="M0 0L10 5L0 10z" fill="#334155"/></marker></defs>
  <g font-family="system-ui, -apple-system, Segoe UI, sans-serif" text-anchor="middle">
    <text x="340" y="18" font-size="13" font-weight="700" fill="#475569">GitHub</text><rect x="10" y="26" width="660" height="110" rx="14" fill="none" stroke="#CBD5E1" stroke-dasharray="5 4"/><rect x="30" y="44" width="230" height="76" rx="12" fill="#DCFCE7" stroke="#16A34A" stroke-width="2"/><text x="145.0" y="72" font-size="15" font-weight="700" fill="#14532D">原项目</text><text x="145.0" y="94" font-size="12.5" fill="#334155">upstream：你无法推送到这里</text><rect x="420" y="44" width="230" height="76" rx="12" fill="#EFF6FF" stroke="#2563EB" stroke-width="2"/><text x="535.0" y="72" font-size="15" font-weight="700" fill="#1E3A8A">你的复刻</text><text x="535.0" y="94" font-size="12.5" fill="#334155">origin：你在 GitHub 上的副本</text><rect x="420" y="190" width="230" height="66" rx="12" fill="#FEF3C7" stroke="#D97706" stroke-width="2"/><text x="535.0" y="218" font-size="15" font-weight="700" fill="#78350F">你的克隆</text><text x="535.0" y="240" font-size="12.5" fill="#334155">在你的电脑上</text><line x1="262" y1="68" x2="418" y2="68" stroke="#334155" stroke-width="2" marker-end="url(#arrow)"/><text x="340" y="60" font-size="12.5"  text-anchor="middle" fill="#7C3AED">Fork</text><line x1="418" y1="100" x2="262" y2="100" stroke="#334155" stroke-width="2" marker-end="url(#arrow)"/><text x="340" y="118" font-size="12.5"  text-anchor="middle" fill="#7C3AED">拉取请求</text><line x1="490" y1="122" x2="490" y2="188" stroke="#334155" stroke-width="2" marker-end="url(#arrow)"/><text x="480" y="160" font-size="12.5" font-family="ui-monospace, Menlo, Consolas, monospace" text-anchor="end" fill="#7C3AED">git clone</text><line x1="580" y1="188" x2="580" y2="122" stroke="#334155" stroke-width="2" marker-end="url(#arrow)"/><text x="590" y="160" font-size="12.5" font-family="ui-monospace, Menlo, Consolas, monospace" text-anchor="start" fill="#7C3AED">git push</text><path d="M418 223 C 200 223 145 190 145 122" stroke="#334155" stroke-width="2" fill="none" marker-end="url(#arrow)"/><text x="250" y="244" font-size="12.5" font-family="ui-monospace, Menlo, Consolas, monospace" text-anchor="middle" fill="#7C3AED">git fetch upstream</text>
  </g>
</svg>
