<?xml version="1.0" encoding="UTF-8" standalone="no"?>
<!DOCTYPE svg PUBLIC "-//W3C//DTD SVG 1.1//EN"
 "http://www.w3.org/Graphics/SVG/1.1/DTD/svg11.dtd">
<!-- Generated by graphviz version 14.1.3 (20260303.0454)
 -->
<!-- Title: VModel Pages: 1 -->
<svg width="973pt" height="822pt"
 viewBox="45.00 30.00 928.00 792.00" xmlns="http://www.w3.org/2000/svg" xmlns:xlink="http://www.w3.org/1999/xlink">
<g id="graph0" class="graph" transform="scale(2.08333 2.08333) rotate(0) translate(25.6 376.3)">
<title>VModel</title>
<polygon fill="white" stroke="none" points="-4,4 -4,-361.9 419.75,-361.9 419.75,4 -4,4"/>
<!-- SysReq -->
<g id="node1" class="node">
<title>SysReq</title>
<path fill="#dbeafe" stroke="black" stroke-width="2" d="M105,-357.9C105,-357.9 12,-357.9 12,-357.9 6,-357.9 0,-351.9 0,-345.9 0,-345.9 0,-321.3 0,-321.3 0,-315.3 6,-309.3 12,-309.3 12,-309.3 105,-309.3 105,-309.3 111,-309.3 117,-315.3 117,-321.3 117,-321.3 117,-345.9 117,-345.9 117,-351.9 111,-357.9 105,-357.9"/>
<text xml:space="preserve" text-anchor="middle" x="58.5" y="-336.65" font-family="Courier New" font-size="11.00">System</text>
<text xml:space="preserve" text-anchor="middle" x="58.5" y="-323.15" font-family="Courier New" font-size="11.00">Requirements</text>
</g>
<!-- SubReq -->
<g id="node2" class="node">
<title>SubReq</title>
<path fill="#dbeafe" stroke="black" stroke-width="2" d="M105,-254.8C105,-254.8 12,-254.8 12,-254.8 6,-254.8 0,-248.8 0,-242.8 0,-242.8 0,-218.2 0,-218.2 0,-212.2 6,-206.2 12,-206.2 12,-206.2 105,-206.2 105,-206.2 111,-206.2 117,-212.2 117,-218.2 117,-218.2 117,-242.8 117,-242.8 117,-248.8 111,-254.8 105,-254.8"/>
<text xml:space="preserve" text-anchor="middle" x="58.5" y="-233.55" font-family="Courier New" font-size="11.00">Subsystem</text>
<text xml:space="preserve" text-anchor="middle" x="58.5" y="-220.05" font-family="Courier New" font-size="11.00">Requirements</text>
</g>
<!-- SysReq&#45;&gt;SubReq -->
<g id="edge1" class="edge">
<title>SysReq&#45;&gt;SubReq</title>
<path fill="none" stroke="#2563eb" d="M58.5,-308.9C58.5,-296.22 58.5,-280.37 58.5,-266.32"/>
<polygon fill="#2563eb" stroke="#2563eb" points="62,-266.57 58.5,-256.57 55,-266.57 62,-266.57"/>
<text xml:space="preserve" text-anchor="middle" x="92.62" y="-278.75" font-family="Courier New" font-size="9.00" fill="#2563eb"> &#160;decompose &#160;</text>
</g>
<!-- SysVal -->
<g id="node7" class="node">
<title>SysVal</title>
<path fill="#f0fdf4" stroke="black" stroke-width="2" d="M387.25,-357.9C387.25,-357.9 307.75,-357.9 307.75,-357.9 301.75,-357.9 295.75,-351.9 295.75,-345.9 295.75,-345.9 295.75,-321.3 295.75,-321.3 295.75,-315.3 301.75,-309.3 307.75,-309.3 307.75,-309.3 387.25,-309.3 387.25,-309.3 393.25,-309.3 399.25,-315.3 399.25,-321.3 399.25,-321.3 399.25,-345.9 399.25,-345.9 399.25,-351.9 393.25,-357.9 387.25,-357.9"/>
<text xml:space="preserve" text-anchor="middle" x="347.5" y="-336.65" font-family="Courier New" font-size="11.00">System</text>
<text xml:space="preserve" text-anchor="middle" x="347.5" y="-323.15" font-family="Courier New" font-size="11.00">Validation</text>
</g>
<!-- SysReq&#45;&gt;SysVal -->
<g id="edge7" class="edge">
<title>SysReq&#45;&gt;SysVal</title>
<path fill="none" stroke="#94a3b8" stroke-dasharray="5,2" d="M117.33,-333.6C165.87,-333.6 234.59,-333.6 284.29,-333.6"/>
<polygon fill="#94a3b8" stroke="#94a3b8" points="284.02,-337.1 294.02,-333.6 284.02,-330.1 284.02,-337.1"/>
<text xml:space="preserve" text-anchor="middle" x="206.38" y="-338.55" font-family="Courier New" font-size="9.00" fill="#94a3b8">validates</text>
</g>
<!-- CompReq -->
<g id="node3" class="node">
<title>CompReq</title>
<path fill="#dbeafe" stroke="black" stroke-width="2" d="M105,-151.7C105,-151.7 12,-151.7 12,-151.7 6,-151.7 0,-145.7 0,-139.7 0,-139.7 0,-115.1 0,-115.1 0,-109.1 6,-103.1 12,-103.1 12,-103.1 105,-103.1 105,-103.1 111,-103.1 117,-109.1 117,-115.1 117,-115.1 117,-139.7 117,-139.7 117,-145.7 111,-151.7 105,-151.7"/>
<text xml:space="preserve" text-anchor="middle" x="58.5" y="-130.45" font-family="Courier New" font-size="11.00">Component</text>
<text xml:space="preserve" text-anchor="middle" x="58.5" y="-116.95" font-family="Courier New" font-size="11.00">Requirements</text>
</g>
<!-- SubReq&#45;&gt;CompReq -->
<g id="edge2" class="edge">
<title>SubReq&#45;&gt;CompReq</title>
<path fill="none" stroke="#2563eb" d="M58.5,-205.8C58.5,-193.12 58.5,-177.27 58.5,-163.22"/>
<polygon fill="#2563eb" stroke="#2563eb" points="62,-163.47 58.5,-153.47 55,-163.47 62,-163.47"/>
<text xml:space="preserve" text-anchor="middle" x="92.62" y="-175.65" font-family="Courier New" font-size="9.00" fill="#2563eb"> &#160;decompose &#160;</text>
</g>
<!-- SubVer -->
<g id="node6" class="node">
<title>SubVer</title>
<path fill="#f0fdf4" stroke="black" stroke-width="2" d="M394,-254.8C394,-254.8 301,-254.8 301,-254.8 295,-254.8 289,-248.8 289,-242.8 289,-242.8 289,-218.2 289,-218.2 289,-212.2 295,-206.2 301,-206.2 301,-206.2 394,-206.2 394,-206.2 400,-206.2 406,-212.2 406,-218.2 406,-218.2 406,-242.8 406,-242.8 406,-248.8 400,-254.8 394,-254.8"/>
<text xml:space="preserve" text-anchor="middle" x="347.5" y="-233.55" font-family="Courier New" font-size="11.00">Subsystem</text>
<text xml:space="preserve" text-anchor="middle" x="347.5" y="-220.05" font-family="Courier New" font-size="11.00">Verification</text>
</g>
<!-- SubReq&#45;&gt;SubVer -->
<g id="edge8" class="edge">
<title>SubReq&#45;&gt;SubVer</title>
<path fill="none" stroke="#94a3b8" stroke-dasharray="5,2" d="M117.33,-230.5C163.63,-230.5 228.28,-230.5 277.28,-230.5"/>
<polygon fill="#94a3b8" stroke="#94a3b8" points="277.24,-234 287.24,-230.5 277.24,-227 277.24,-234"/>
<text xml:space="preserve" text-anchor="middle" x="203" y="-235.45" font-family="Courier New" font-size="9.00" fill="#94a3b8">verifies</text>
</g>
<!-- Impl -->
<g id="node4" class="node">
<title>Impl</title>
<path fill="#fef3c7" stroke="black" stroke-width="2" d="M255.75,-48.6C255.75,-48.6 149.25,-48.6 149.25,-48.6 143.25,-48.6 137.25,-42.6 137.25,-36.6 137.25,-36.6 137.25,-12 137.25,-12 137.25,-6 143.25,0 149.25,0 149.25,0 255.75,0 255.75,0 261.75,0 267.75,-6 267.75,-12 267.75,-12 267.75,-36.6 267.75,-36.6 267.75,-42.6 261.75,-48.6 255.75,-48.6"/>
<text xml:space="preserve" text-anchor="middle" x="202.5" y="-27.35" font-family="Courier New" font-size="11.00">Implementation</text>
<text xml:space="preserve" text-anchor="middle" x="202.5" y="-13.85" font-family="Courier New" font-size="11.00">&amp; Coding</text>
</g>
<!-- CompReq&#45;&gt;Impl -->
<g id="edge3" class="edge">
<title>CompReq&#45;&gt;Impl</title>
<path fill="none" stroke="#92400e" d="M92.26,-102.7C112.39,-88.56 138.14,-70.48 159.69,-55.36"/>
<polygon fill="#92400e" stroke="#92400e" points="161.54,-58.34 167.71,-49.72 157.52,-52.61 161.54,-58.34"/>
<text xml:space="preserve" text-anchor="middle" x="168.94" y="-72.55" font-family="Courier New" font-size="9.00" fill="#92400e"> &#160;implement &#160;</text>
</g>
<!-- CompVer -->
<g id="node5" class="node">
<title>CompVer</title>
<path fill="#f0fdf4" stroke="black" stroke-width="2" d="M394,-151.7C394,-151.7 301,-151.7 301,-151.7 295,-151.7 289,-145.7 289,-139.7 289,-139.7 289,-115.1 289,-115.1 289,-109.1 295,-103.1 301,-103.1 301,-103.1 394,-103.1 394,-103.1 400,-103.1 406,-109.1 406,-115.1 406,-115.1 406,-139.7 406,-139.7 406,-145.7 400,-151.7 394,-151.7"/>
<text xml:space="preserve" text-anchor="middle" x="347.5" y="-130.45" font-family="Courier New" font-size="11.00">Component</text>
<text xml:space="preserve" text-anchor="middle" x="347.5" y="-116.95" font-family="Courier New" font-size="11.00">Verification</text>
</g>
<!-- CompReq&#45;&gt;CompVer -->
<g id="edge9" class="edge">
<title>CompReq&#45;&gt;CompVer</title>
<path fill="none" stroke="#94a3b8" stroke-dasharray="5,2" d="M117.33,-127.4C163.63,-127.4 228.28,-127.4 277.28,-127.4"/>
<polygon fill="#94a3b8" stroke="#94a3b8" points="277.24,-130.9 287.24,-127.4 277.24,-123.9 277.24,-130.9"/>
<text xml:space="preserve" text-anchor="middle" x="203" y="-132.35" font-family="Courier New" font-size="9.00" fill="#94a3b8">verifies</text>
</g>
<!-- Impl&#45;&gt;CompVer -->
<g id="edge4" class="edge">
<title>Impl&#45;&gt;CompVer</title>
<path fill="none" stroke="#16a34a" d="M236.53,-49.03C256.74,-63.12 282.55,-81.12 304.2,-96.21"/>
<polygon fill="#16a34a" stroke="#16a34a" points="302.06,-98.98 312.26,-101.83 306.06,-93.24 302.06,-98.98"/>
<text xml:space="preserve" text-anchor="middle" x="300.35" y="-72.55" font-family="Courier New" font-size="9.00" fill="#16a34a"> &#160;test &#160;</text>
</g>
<!-- CompVer&#45;&gt;SubVer -->
<g id="edge5" class="edge">
<title>CompVer&#45;&gt;SubVer</title>
<path fill="none" stroke="#16a34a" d="M347.5,-151.95C347.5,-164.61 347.5,-180.45 347.5,-194.51"/>
<polygon fill="#16a34a" stroke="#16a34a" points="344,-194.28 347.5,-204.28 351,-194.28 344,-194.28"/>
<text xml:space="preserve" text-anchor="middle" x="381.62" y="-175.65" font-family="Courier New" font-size="9.00" fill="#16a34a"> &#160;integrate &#160;</text>
</g>
<!-- SubVer&#45;&gt;SysVal -->
<g id="edge6" class="edge">
<title>SubVer&#45;&gt;SysVal</title>
<path fill="none" stroke="#16a34a" d="M347.5,-255.05C347.5,-267.71 347.5,-283.55 347.5,-297.61"/>
<polygon fill="#16a34a" stroke="#16a34a" points="344,-297.38 347.5,-307.38 351,-297.38 344,-297.38"/>
<text xml:space="preserve" text-anchor="middle" x="381.62" y="-278.75" font-family="Courier New" font-size="9.00" fill="#16a34a"> &#160;integrate &#160;</text>
</g>
</g>
</svg>
